<?xml version="1.0" standalone="no"?>
<!DOCTYPE svg PUBLIC "-//W3C//DTD SVG 20010904//EN"
 "http://www.w3.org/TR/2001/REC-SVG-20010904/DTD/svg10.dtd">
<svg version="1.0" xmlns="http://www.w3.org/2000/svg"
 width="196.000000pt" height="49.000000pt" viewBox="0 0 196.000000 49.000000"
 preserveAspectRatio="xMidYMid meet">

<g transform="translate(0.000000,49.000000) scale(0.100000,-0.100000)"
fill="#ffffff" stroke="none">
<path d="M590 350 l0 -140 35 0 c31 0 35 3 35 25 0 14 4 25 8 25 5 0 15 -11
22 -25 11 -21 21 -25 57 -25 24 0 43 3 43 6 0 4 -16 29 -35 55 -19 27 -35 53
-35 57 0 4 16 23 35 42 19 19 35 38 35 42 0 15 -87 9 -100 -7 -22 -26 -30 -16
-30 35 l0 50 -35 0 -35 0 0 -140z"/>
<path d="M1595 473 c-70 -18 -106 -124 -71 -208 31 -74 127 -94 178 -36 15 17
28 37 28 43 0 7 -15 -5 -34 -25 -73 -79 -166 -30 -166 88 0 117 93 167 166 89
19 -19 34 -31 34 -25 0 6 -12 24 -27 41 -28 30 -70 43 -108 33z"/>
<path d="M830 335 c0 -83 4 -135 10 -135 6 0 10 25 10 55 l0 55 55 0 c95 0
142 43 119 109 -13 36 -49 51 -126 51 l-68 0 0 -135z m150 110 c24 -13 30 -22
30 -50 0 -51 -21 -65 -96 -65 l-64 0 0 65 0 65 50 0 c28 0 64 -7 80 -15z"/>
<path d="M1072 338 l-2 -138 88 2 87 2 -80 5 -80 6 -5 130 -6 130 -2 -137z"/>
<path d="M1370 467 c0 -2 -25 -64 -54 -136 -30 -72 -51 -131 -47 -131 5 0 16
18 25 40 l16 40 72 0 73 0 17 -42 c10 -23 20 -39 23 -36 8 8 -100 261 -113
266 -7 2 -12 2 -12 -1z m66 -152 c6 -25 5 -25 -56 -25 -70 0 -69 -4 -22 100
l24 55 24 -53 c13 -28 26 -63 30 -77z"/>
<path d="M1363 340 c-11 -29 -10 -30 17 -30 28 0 29 1 19 30 -6 17 -14 30 -18
30 -4 0 -12 -13 -18 -30z"/>
<path d="M1770 335 l0 -135 98 2 97 2 -87 3 -88 4 0 59 0 60 80 0 c47 0 80 4
80 10 0 6 -33 10 -80 10 l-80 0 0 55 0 54 88 4 87 3 -97 2 -98 2 0 -135z"/>
<path d="M58 423 l-58 -4 0 -104 0 -105 40 0 40 0 0 60 c0 55 2 62 25 72 20 9
25 18 25 50 0 21 -3 37 -7 36 -5 -1 -34 -3 -65 -5z"/>
<path d="M176 389 c-18 -22 -26 -42 -26 -70 0 -96 70 -145 149 -105 49 26 66
98 36 156 -19 37 -43 50 -93 50 -33 0 -45 -6 -66 -31z m97 -61 c6 -22 -8 -58
-22 -58 -18 0 -33 31 -27 55 8 31 41 34 49 3z"/>
<path d="M399 391 c-36 -36 -40 -98 -9 -148 35 -58 125 -57 160 0 11 18 20 38
20 45 0 18 -60 15 -82 -5 -17 -15 -20 -15 -35 -1 -21 22 -10 68 17 68 11 0 20
-4 20 -10 0 -5 18 -10 40 -10 48 0 52 15 14 59 -22 26 -33 31 -71 31 -36 0
-50 -6 -74 -29z"/>
<path d="M1077 103 c-13 -12 -7 -60 8 -73 24 -20 45 -4 45 34 0 19 -3 37 -8
40 -4 2 -6 -14 -4 -36 4 -35 2 -39 -14 -36 -15 3 -19 12 -19 41 0 20 0 37 -1
37 0 0 -4 -3 -7 -7z"/>
<path d="M1331 99 c-1 -9 8 -24 19 -34 26 -24 25 -39 -1 -32 -16 4 -19 3 -11
-5 14 -14 42 -3 42 17 0 9 -7 18 -16 22 -9 3 -20 15 -24 27 -6 15 -9 16 -9 5z"/>
<path d="M1661 68 c0 -31 3 -37 8 -24 7 18 3 66 -5 66 -2 0 -4 -19 -3 -42z"/>
<path d="M1697 90 c3 -11 7 -20 9 -20 2 0 4 9 4 20 0 11 -4 20 -9 20 -5 0 -7
-9 -4 -20z"/>
<path d="M1724 68 c1 -33 5 -43 19 -44 11 -1 12 0 3 3 -9 2 -17 21 -19 44 l-4
39 1 -42z"/>
<path d="M1795 99 c-4 -6 -5 -12 -2 -15 2 -3 7 2 10 11 7 17 1 20 -8 4z"/>
<path d="M1854 96 c-11 -30 0 -71 20 -71 11 0 20 6 22 13 1 7 0 8 -3 2 -2 -5
-12 -10 -20 -10 -12 0 -14 9 -11 40 4 42 1 50 -8 26z"/>
<path d="M1922 68 c-2 -44 0 -48 21 -47 16 1 17 3 5 6 -12 3 -18 17 -21 46
l-4 42 -1 -47z"/>
<path d="M1176 77 c3 -10 9 -15 12 -12 3 3 0 11 -7 18 -10 9 -11 8 -5 -6z"/>
<path d="M1215 81 c-3 -7 0 -8 9 -5 9 3 16 1 16 -4 0 -6 -8 -13 -17 -15 -13
-3 -12 -5 5 -6 17 -1 23 4 20 16 -4 20 -24 28 -33 14z"/>
<path d="M1299 52 c5 -34 6 -35 9 -8 2 16 0 32 -5 37 -5 5 -7 -7 -4 -29z"/>
<path d="M1523 83 c-7 -2 -12 -17 -12 -31 1 -21 2 -23 6 -7 3 11 10 26 15 33
11 13 10 13 -9 5z"/>
<path d="M1557 83 c-11 -10 -8 -51 4 -59 6 -3 16 -1 22 5 9 9 8 11 -5 6 -15
-6 -18 -2 -18 20 0 20 4 26 16 21 8 -3 12 -2 9 4 -7 12 -19 13 -28 3z"/>
<path d="M1394 50 c1 -18 7 -25 21 -25 14 0 20 7 21 25 1 22 0 22 -3 3 -6 -30
-30 -30 -36 0 -3 19 -4 19 -3 -3z"/>
<path d="M1452 60 c0 -14 2 -19 5 -12 2 6 2 18 0 25 -3 6 -5 1 -5 -13z"/>
<path d="M1491 63 c0 -12 -9 -27 -18 -32 -10 -6 -13 -10 -8 -11 22 0 37 18 32
41 -4 23 -4 23 -6 2z"/>
<path d="M1600 57 c0 -30 24 -47 42 -29 8 8 5 9 -11 5 -12 -3 -21 -1 -21 6 0
6 6 11 14 11 8 0 18 4 21 10 4 6 -1 7 -10 3 -10 -3 -21 0 -26 8 -6 10 -9 6 -9
-14z"/>
<path d="M1150 37 c0 -22 31 -19 37 3 4 13 3 13 -6 0 -10 -13 -12 -13 -21 0
-8 13 -10 12 -10 -3z"/>
<path d="M1220 26 c7 -7 13 -7 20 0 6 6 3 10 -10 10 -13 0 -16 -4 -10 -10z"/>
</g>
</svg>
